<svg xmlns="http://www.w3.org/2000/svg" width="83.201" height="84.649" viewBox="0 0 83.201 84.649"><g transform="translate(0.707 0.707)"><ellipse cx="24.304" cy="24.304" rx="24.304" ry="24.304" transform="translate(16.591 16.625)" fill="none" stroke="#003048" stroke-linecap="round" stroke-linejoin="round" stroke-dashoffset="1.1" stroke-width="1"/><path d="M-378.508,1312.533v-8.578m-4.043,3.145,4.044-4.044,4.044,4.044m27.383,36.857h8.578m-3.157-4.032,4.044,4.044-4.044,4.044m-68.275-4.056h-8.578m3.154-4.032-4.044,4.044,4.044,4.044m59.074-26.272,6.065-6.066m-5.09-.625h5.719v5.719m-51.139,45.406-6.065,6.066m-.628-5.094v5.719h5.719m45.42-6.691,6.065,6.066m.628-5.094v5.719h-5.719m-45.42-51.125-6.066-6.066m5.091-.625h-5.719v5.719" transform="translate(419.403 -1303.056)" fill="none" stroke="#003048" stroke-width="1"/><g transform="translate(21.168 20.894)"><path d="M29.015,1026.84A20.016,20.016,0,0,0,9,1046.856q.005.859.084,1.714c.865,12.951,11.264,15.982,11.264,24.287h2.279a2.8,2.8,0,0,0-2.189,2.734v11.437a2.853,2.853,0,0,0,2.859,2.859H34.734a2.853,2.853,0,0,0,2.859-2.859v-11.437a2.811,2.811,0,0,0-2.189-2.726h2.279c0-8.243,10.25-11.291,11.247-24a20.019,20.019,0,0,0-19.915-22.023Z" transform="translate(-9 -1026.84)" fill="#003049"/><path d="M13,1042.93v14.163a2.853,2.853,0,0,0,2.859,2.859H27.3a2.853,2.853,0,0,0,2.859-2.859V1042.93Z" transform="translate(-1.563 -996.923)" fill="#003049"/><path d="M12.508,1043.39H32.479m-19.971,5.719H32.479m-19.971,5.719H32.479" transform="translate(-2.478 -996.068)" fill="none" stroke="#003048" stroke-linecap="round" stroke-linejoin="round" stroke-width="1"/></g></g></svg>