<svg xmlns="http://www.w3.org/2000/svg" width="77.54" height="88.997" viewBox="0 0 77.54 88.997"><g transform="translate(0.5 0.5)"><path d="M67.661,1053.417v13.605H40.3M3,1053.067v13.941H30.357m22.383-29.931v8.388l-11.191.1v17.416m-23.626-25.774v8.262l11.191.1v17.416m6.217-37.634v32.249" transform="translate(3.112 -1013.263)" fill="none" stroke="#003049" stroke-width="1"/><ellipse cx="6.523" cy="6.579" rx="6.523" ry="6.579" transform="translate(0 27.257)" fill="none" stroke="#003049" stroke-linecap="round" stroke-linejoin="round" stroke-dashoffset="1.5" stroke-width="1"/><ellipse cx="6.523" cy="6.579" rx="6.523" ry="6.579" transform="translate(31.312)" fill="none" stroke="#003049" stroke-linecap="round" stroke-linejoin="round" stroke-dashoffset="1.5" stroke-width="1"/><ellipse cx="6.523" cy="5.639" rx="6.523" ry="5.639" transform="translate(14.786 11.279)" fill="none" stroke="#003049" stroke-linecap="round" stroke-linejoin="round" stroke-dashoffset="1.5" stroke-width="1"/><ellipse cx="6.088" cy="6.579" rx="6.088" ry="6.579" transform="translate(76.54 40.415) rotate(180)" fill="none" stroke="#003049" stroke-linecap="round" stroke-linejoin="round" stroke-dashoffset="1.5" stroke-width="1"/><ellipse cx="6.958" cy="5.639" rx="6.958" ry="5.639" transform="translate(62.624 22.557) rotate(180)" fill="none" stroke="#003049" stroke-linecap="round" stroke-linejoin="round" stroke-dashoffset="1.5" stroke-width="1"/><path d="M22.788,1034.381h0a1.41,1.41,0,0,0-1.39,1.343v9.726a5.363,5.363,0,0,0,2.864,4.667v2.295c0,.153.081.317.081.479,0,.313-.081.631-.081.948v4.113a13.565,13.565,0,0,0,5.809,11.076,6.607,6.607,0,0,1-2.945,4.826c-1.962,1.422-4.745,2.372-7.69,3.638a23.93,23.93,0,0,0-8.5,5.22c-2.373,2.611-3.925,6.247-3.925,11.47v1.425H70.313v-1.425c0-5.063-1.555-8.621-4.008-11.15a23.248,23.248,0,0,0-8.343-5.064,37.219,37.219,0,0,1-7.606-3.638,7.05,7.05,0,0,1-2.945-5.38,13.608,13.608,0,0,0,5.644-11v-12.5a8.515,8.515,0,0,0-8.589-8.383H27.617a7.706,7.706,0,0,1-2.373-.479,3.2,3.2,0,0,1-.818-.481.8.8,0,0,1-.165-.393,1.336,1.336,0,0,0-1.474-1.342h0Z" transform="translate(2.835 -1007.109)" fill="#003049"/></g></svg>