<svg xmlns="http://www.w3.org/2000/svg" width="80" height="80" viewBox="0 0 80 80"><g transform="translate(0.5 0.5)"><path d="M5,1047.913l18.845-16.153M21.153,1085.6,5,1058.681m40.383-2.692,18.845-18.845m-5.384,35-13.461-8.076m-37.69-8.077,29.614,2.692m-6.73,30.96,28.268-9.423m-17.5-55.458,20.191,2.961m8.077,9.423-2.692,35" transform="translate(4.886 -1016.489)" fill="none" stroke="#003049" stroke-width="1"/><circle cx="9.5" cy="9.5" r="9.5" transform="translate(27)" fill="#003049" stroke="#003049" stroke-miterlimit="0.6" stroke-dashoffset="3.2" stroke-width="1"/><circle cx="7" cy="7" r="7" transform="translate(0 30)" fill="#003049" stroke="#003049" stroke-miterlimit="0.6" stroke-dashoffset="3.2" stroke-width="1"/><ellipse cx="5" cy="5.5" rx="5" ry="5.5" transform="translate(25 68)" fill="#003049" stroke="#003049" stroke-miterlimit="0.6" stroke-dashoffset="3.2" stroke-width="1"/><circle cx="5.5" cy="5.5" r="5.5" transform="translate(41 38)" fill="#003049" stroke="#003049" stroke-miterlimit="0.6" stroke-dashoffset="3.2" stroke-width="1"/><circle cx="5.5" cy="5.5" r="5.5" transform="translate(62 54)" fill="#003049" stroke="#003049" stroke-miterlimit="0.6" stroke-dashoffset="3.2" stroke-width="1"/><ellipse cx="7" cy="6.5" rx="7" ry="6.5" transform="translate(65 9)" fill="#003049" stroke="#003049" stroke-miterlimit="0.6" stroke-dashoffset="3.2" stroke-width="1"/></g></svg>