<svg xmlns="http://www.w3.org/2000/svg" width="110.314" height="66.612" viewBox="0 0 110.314 66.612"><g transform="translate(0.5 0.501)"><path d="M-382.511,1384.371h0a.99.99,0,0,0-.96.96v6.945a3.85,3.85,0,0,0,1.978,3.335v1.638c0,.109.056.222.056.342,0,.223-.056.451-.056.677v2.938a9.786,9.786,0,0,0,4.012,7.911,4.743,4.743,0,0,1-2.034,3.446,29.075,29.075,0,0,1-5.311,2.6,16.442,16.442,0,0,0-5.874,3.729,11.855,11.855,0,0,0-2.711,8.191v1.018h43.724v-1.018a11.107,11.107,0,0,0-2.769-7.965,15.977,15.977,0,0,0-5.762-3.616,25.407,25.407,0,0,1-5.253-2.6,5.079,5.079,0,0,1-2.034-3.843,9.826,9.826,0,0,0,3.9-7.854v-8.932a5.979,5.979,0,0,0-5.932-5.987h-11.637a5.294,5.294,0,0,1-1.639-.343,2.339,2.339,0,0,1-.565-.349.573.573,0,0,1-.114-.273.936.936,0,0,0-1.018-.96h0Zm-65.594.037h0a.989.989,0,0,0-.96.959v6.942a3.847,3.847,0,0,0,1.977,3.333v1.637c0,.109.056.223.056.342,0,.223-.056.451-.056.677v2.937a9.781,9.781,0,0,0,4.01,7.907,4.744,4.744,0,0,1-2.033,3.446,29.1,29.1,0,0,1-5.309,2.6,16.43,16.43,0,0,0-5.872,3.727A11.845,11.845,0,0,0-459,1427.1v1.018h43.706V1427.1a11.1,11.1,0,0,0-2.767-7.961,15.953,15.953,0,0,0-5.76-3.615,25.379,25.379,0,0,1-5.251-2.6,5.074,5.074,0,0,1-2.033-3.842,9.82,9.82,0,0,0,3.9-7.85v-8.93a5.977,5.977,0,0,0-5.93-5.985h-11.632a5.292,5.292,0,0,1-1.638-.343,2.318,2.318,0,0,1-.565-.349.572.572,0,0,1-.114-.273.936.936,0,0,0-1.018-.959h0Z" transform="translate(459 -1384.351)" fill="#003049" stroke="#f3f3f3" stroke-width="1"/><path d="M-443.348,1385.438h0a1.148,1.148,0,0,0-1.114,1.114v8.062a4.469,4.469,0,0,0,2.3,3.87v1.9c0,.124.065.259.065.4,0,.255-.065.523-.065.786v3.41a11.359,11.359,0,0,0,4.657,9.182,5.507,5.507,0,0,1-2.361,4,33.7,33.7,0,0,1-6.165,3.015,19.1,19.1,0,0,0-6.818,4.328c-1.9,2.164-3.146,5.179-3.146,9.509v1.181h50.752v-1.181c0-4.2-1.247-7.147-3.214-9.245a18.532,18.532,0,0,0-6.688-4.2,29.392,29.392,0,0,1-6.1-3.016,5.894,5.894,0,0,1-2.361-4.46,11.406,11.406,0,0,0,4.525-9.117v-10.363a6.941,6.941,0,0,0-6.886-6.949h-13.507a6.063,6.063,0,0,1-1.9-.4,2.706,2.706,0,0,1-.656-.4.677.677,0,0,1-.132-.321,1.086,1.086,0,0,0-1.182-1.113h0Z" transform="translate(466.931 -1381.521)" fill="#003049" stroke="#f3f3f3" stroke-width="1"/><path d="M-433.276,1385.438h0a1.148,1.148,0,0,0-1.114,1.114v8.062a4.469,4.469,0,0,0,2.3,3.87v1.9c0,.124.065.259.065.4,0,.255-.065.523-.065.786v3.41a11.359,11.359,0,0,0,4.657,9.182,5.507,5.507,0,0,1-2.361,4,33.7,33.7,0,0,1-6.165,3.015,19.1,19.1,0,0,0-6.818,4.328c-1.9,2.164-3.146,5.179-3.146,9.509v1.181h50.752v-1.181c0-4.2-1.246-7.147-3.213-9.245a18.533,18.533,0,0,0-6.688-4.2,29.386,29.386,0,0,1-6.1-3.016,5.893,5.893,0,0,1-2.361-4.46,11.405,11.405,0,0,0,4.525-9.117v-10.363a6.941,6.941,0,0,0-6.886-6.949H-429.4a6.062,6.062,0,0,1-1.9-.4,2.7,2.7,0,0,1-.656-.4.677.677,0,0,1-.132-.321,1.086,1.086,0,0,0-1.182-1.113h0Z" transform="translate(493.559 -1381.521)" fill="#003049" stroke="#f3f3f3" stroke-width="1"/><path d="M-436.65,1384.374h0a1.484,1.484,0,0,0-1.44,1.44v10.419a5.774,5.774,0,0,0,2.967,5v2.458c0,.16.084.331.084.512,0,.331-.084.676-.084,1.016v4.407a14.679,14.679,0,0,0,6.018,11.865,7.115,7.115,0,0,1-3.051,5.17c-2.033,1.525-4.916,2.542-7.967,3.9a24.674,24.674,0,0,0-8.811,5.593c-2.458,2.8-4.066,6.693-4.066,12.288v1.527h65.586v-1.527c0-5.425-1.611-9.235-4.153-11.946a23.962,23.962,0,0,0-8.644-5.425,38.1,38.1,0,0,1-7.88-3.9,7.62,7.62,0,0,1-3.051-5.765,14.738,14.738,0,0,0,5.847-11.781v-13.392a8.969,8.969,0,0,0-8.9-8.981h-17.455a7.806,7.806,0,0,1-2.458-.511,3.4,3.4,0,0,1-.847-.519.873.873,0,0,1-.171-.423,1.4,1.4,0,0,0-1.527-1.437h0Z" transform="translate(474.862 -1384.355)" fill="#003049" stroke="#f3f3f3" stroke-width="1"/></g></svg>