<svg xmlns="http://www.w3.org/2000/svg" width="77.997" height="62.508" viewBox="0 0 77.997 62.508"><g transform="translate(-905.71 -2805.542)"><path d="M-433.817,1244.362h0a7.371,7.371,0,0,0-6.316,3.577,23.489,23.489,0,0,0-2.907,7.23c-1.413,5.321-2.493,11.052-4.737,13.381l-1.33,1.331,1.662,1.078a38.578,38.578,0,0,0,9.558,4.238c.749.252.831.667.916,1.33a9.338,9.338,0,0,1-2.743,6.234,39.441,39.441,0,0,1-6.566,5.154,42.748,42.748,0,0,0-7.147,5.482,11.14,11.14,0,0,0-3.574,7.9v1.577h54.267v-1.577a11.3,11.3,0,0,0-3.574-7.814,52.236,52.236,0,0,0-7.065-5.568,40.082,40.082,0,0,1-6.648-5.153,8.849,8.849,0,0,1-2.66-6.152c0-1,.417-1.331.746-1.495a32.674,32.674,0,0,0,9.227-4.241l1.58-1-1.33-1.33c-2.411-2.493-3.574-8.228-5.236-13.545a22.27,22.27,0,0,0-3.324-7.23,8.33,8.33,0,0,0-6.816-3.409h-5.982Z" transform="translate(1386.44 1565.18)" fill="#003049"/><path d="M15.573,1035.394h0a1.414,1.414,0,0,0-1.372,1.371v9.925a5.5,5.5,0,0,0,2.826,4.763v2.34c0,.157.08.318.08.494,0,.318-.08.648-.08.968v4.2a13.982,13.982,0,0,0,5.732,11.3,6.776,6.776,0,0,1-2.906,4.925c-1.936,1.452-4.683,2.422-7.589,3.712a23.484,23.484,0,0,0-8.393,5.328C1.531,1087.4,0,1091.1,0,1096.407v1.453H62.47v-1.453c0-5.168-1.534-8.8-3.955-11.381a22.823,22.823,0,0,0-8.233-5.167,36.2,36.2,0,0,1-7.506-3.713,7.251,7.251,0,0,1-2.906-5.49,14.038,14.038,0,0,0,5.569-11.222v-12.762a8.543,8.543,0,0,0-8.475-8.555H20.339a7.174,7.174,0,0,1-2.341-.494,2.9,2.9,0,0,1-.807-.494.834.834,0,0,1-.162-.4,1.336,1.336,0,0,0-1.454-1.369h0Z" transform="translate(905.71 1770.19)" fill="#003049" style="mix-blend-mode:multiply;isolation:isolate"/></g></svg>