<svg xmlns="http://www.w3.org/2000/svg" width="71.277" height="71.277" viewBox="0 0 71.277 71.277"><path d="M0,0H71.277V71.277H0Z" fill="none"/><path d="M35.7,23.819h-5.94v5.94H35.7Zm11.879,0h-5.94v5.94h5.94Zm8.91,19.3a33.877,33.877,0,0,1-10.6-1.693,2.98,2.98,0,0,0-3.014.728l-6.534,6.549A44.8,44.8,0,0,1,16.766,29.15L23.3,22.6a2.98,2.98,0,0,0,.728-3.014A33.971,33.971,0,0,1,22.334,8.97,2.96,2.96,0,0,0,19.364,6H8.97A2.96,2.96,0,0,0,6,8.97,50.483,50.483,0,0,0,56.488,59.458a2.96,2.96,0,0,0,2.97-2.97V46.093A2.96,2.96,0,0,0,56.488,43.123Zm-2.97-19.3v5.94h5.94v-5.94Z" transform="translate(2.91 2.91)" fill="#fff"/></svg>